<svg id="SvgjsSvg1011" xmlns="http://www.w3.org/2000/svg" version="1.1" xmlns:xlink="http://www.w3.org/1999/xlink" xmlns:svgjs="http://svgjs.com/svgjs" width="72" height="53" viewBox="0 0 72 53"><title>Activity</title><desc>Created with Avocode.</desc><defs id="SvgjsDefs1012"></defs><path id="SvgjsPath1013" d="M1225.73 1562.97L1217.26 1543.89C1216.76 1542.7800000000002 1215.65 1542 1214.35 1542C1212.84 1542 1211.58 1543.06 1211.26 1544.47L1202.89 1581.33L1191.88 1554.57C1191.4 1553.4099999999999 1190.2700000000002 1552.6 1188.94 1552.6C1187.63 1552.6 1186.51 1553.3899999999999 1186.02 1554.53L1176.01 1577.8999999999999L1170.61 1567.08C1170.09 1566.04 1169.01 1565.32 1167.77 1565.32C1166.78 1565.32 1165.91 1565.76 1165.33 1566.46L1154.74 1579.18C1154.28 1579.74 1154 1580.44 1154 1581.22C1154 1582.97 1155.42 1584.4 1157.18 1584.4C1158.16 1584.4 1159.04 1583.95 1159.6200000000001 1583.25L1167.1000000000001 1574.27L1173.39 1586.8799999999999C1173.91 1587.9199999999998 1174.99 1588.6399999999999 1176.24 1588.6399999999999C1177.55 1588.6399999999999 1178.67 1587.84 1179.16 1586.7099999999998L1188.88 1563.9899999999998L1200.8300000000002 1593.0299999999997C1201.3000000000002 1594.1899999999998 1202.44 1594.9999999999998 1203.7700000000002 1594.9999999999998C1205.2800000000002 1594.9999999999998 1206.5400000000002 1593.9399999999998 1206.8600000000001 1592.5299999999997L1215.3300000000002 1555.2199999999998L1219.92 1565.5499999999997C1220.41 1566.6599999999996 1221.53 1567.4399999999998 1222.8200000000002 1567.4399999999998C1224.5800000000002 1567.4399999999998 1226.0000000000002 1566.0099999999998 1226.0000000000002 1564.2599999999998C1226.0000000000002 1563.7999999999997 1225.9000000000003 1563.3599999999997 1225.7300000000002 1562.9699999999998Z " fill="#87949e" fill-opacity="1" transform="matrix(1,0,0,1,-1154,-1542)"></path></svg>