<svg id="SvgjsSvg1008" xmlns="http://www.w3.org/2000/svg" version="1.1" xmlns:xlink="http://www.w3.org/1999/xlink" xmlns:svgjs="http://svgjs.com/svgjs" width="48" height="55" viewBox="0 0 48 55"><title>Atom</title><desc>Created with Avocode.</desc><defs id="SvgjsDefs1009"></defs><path id="SvgjsPath1010" d="M834.189 1582.5C832.822 1584.85 830.009 1586.05 826.126 1586.05C824.59 1586.05 822.876 1585.85 821.029 1585.47C818.903 1592.2 815.498 1596.01 811.5 1596.01C807.504 1596.01 804.099 1592.2 801.973 1585.48C800.0759999999999 1585.8700000000001 798.334 1586.06 796.78 1586.06C792.934 1586.06 790.192 1584.8799999999999 788.813 1582.5C786.887 1579.19 788.423 1574.52 793.008 1569.5C788.4250000000001 1564.48 786.8870000000001 1559.81 788.812 1556.49C790.718 1553.22 795.4540000000001 1552.18 801.97 1553.53C804.0980000000001 1546.8 807.5020000000001 1542.99 811.5 1542.99C815.498 1542.99 818.903 1546.8 821.029 1553.53C823.086 1553.1 824.953 1552.8999999999999 826.607 1552.94C830.25 1553.01 832.858 1554.21 834.187 1556.49C836.113 1559.81 834.577 1564.48 829.992 1569.5C834.5759999999999 1574.52 836.1129999999999 1579.18 834.189 1582.5ZM818.083 1566.02C816.967 1565.27 815.8439999999999 1564.56 814.725 1563.91C813.6850000000001 1563.3200000000002 812.599 1562.75 811.5 1562.21C810.402 1562.75 809.315 1563.32 808.276 1563.91C807.156 1564.5600000000002 806.0329999999999 1565.27 804.9169999999999 1566.02C804.8499999999999 1567.17 804.7829999999999 1568.32 804.7829999999999 1569.5C804.7829999999999 1570.68 804.8499999999999 1571.83 804.9169999999999 1572.98C806.0329999999999 1573.73 807.156 1574.44 808.276 1575.08C809.317 1575.6799999999998 810.4019999999999 1576.25 811.5 1576.79C812.599 1576.25 813.685 1575.68 814.725 1575.08C815.844 1574.4399999999998 816.967 1573.73 818.083 1572.98C818.151 1571.83 818.218 1570.68 818.218 1569.5C818.218 1568.32 818.151 1567.17 818.083 1566.02ZM806.188 1581.9C807.837 1588.5600000000002 810.322 1591.0400000000002 811.5 1591.0400000000002C812.536 1591.0400000000002 814.58 1589.1200000000001 816.18 1584.14C814.3069999999999 1583.51 812.3789999999999 1582.73 810.418 1581.8100000000002C808.817 1581.0600000000002 807.243 1580.2400000000002 805.742 1579.38C805.7189999999999 1579.3600000000001 805.694 1579.3500000000001 805.6709999999999 1579.3400000000001C805.8319999999999 1580.2 805.9839999999999 1581.0800000000002 806.188 1581.9ZM816.813 1557.09C815.164 1550.4399999999998 812.679 1547.9599999999998 811.5 1547.9599999999998C810.464 1547.9599999999998 808.42 1549.8799999999999 806.82 1554.86C808.6940000000001 1555.49 810.6220000000001 1556.26 812.582 1557.1899999999998C814.184 1557.9399999999998 815.757 1558.7599999999998 817.259 1559.62C817.282 1559.6299999999999 817.307 1559.6499999999999 817.3290000000001 1559.6599999999999C817.1690000000001 1558.79 817.0160000000001 1557.9199999999998 816.8130000000001 1557.09ZM803.058 1558.89C796.885 1557.18 793.728 1558.0300000000002 793.182 1558.97C792.697 1559.8 793.3100000000001 1562.3600000000001 796.616 1566.03C797.957 1564.8799999999999 799.4159999999999 1563.74 800.995 1562.6299999999999C802.5120000000001 1561.58 804.0600000000001 1560.59 805.601 1559.6999999999998C804.739 1559.3999999999999 803.886 1559.12 803.058 1558.8899999999999ZM817.402 1579.29C818.264 1579.6 819.114 1579.87 819.942 1580.1C826.112 1581.82 829.271 1580.9699999999998 829.819 1580.03C830.304 1579.19 829.689 1576.6299999999999 826.386 1572.97C825.044 1574.1200000000001 823.5849999999999 1575.26 822.006 1576.3700000000001C820.49 1577.42 818.9409999999999 1578.4 817.4019999999999 1579.2900000000002ZM829.815 1558.96C829.34 1558.15 826.8860000000001 1557.41 822.1990000000001 1558.3500000000001C822.58 1560.3200000000002 822.893 1562.3500000000001 823.0600000000001 1564.47C823.1780000000001 1565.98 823.2370000000001 1567.52 823.2470000000001 1569.08C823.767 1568.6299999999999 824.272 1568.1699999999998 824.744 1567.72C829.493 1563.16 830.374 1559.93 829.815 1558.96ZM793.185 1580.03C793.6569999999999 1580.85 796.1129999999999 1581.59 800.8009999999999 1580.6399999999999C800.4209999999999 1578.6799999999998 800.108 1576.6499999999999 799.9399999999999 1574.52C799.8219999999999 1573.02 799.7629999999999 1571.47 799.7539999999999 1569.92C799.2339999999999 1570.3700000000001 798.7289999999999 1570.8200000000002 798.257 1571.28C793.5079999999999 1575.84 792.626 1579.07 793.185 1580.03ZM814.859 1569.5C814.859 1567.67 813.354 1566.18 811.5 1566.18C809.646 1566.18 808.141 1567.67 808.141 1569.5C808.141 1571.33 809.646 1572.81 811.5 1572.81C813.354 1572.81 814.859 1571.33 814.859 1569.5Z " fill="#ffffff" fill-opacity="1" transform="matrix(1,0,0,1,-788,-1542)"></path></svg>