<svg id="SvgjsSvg1014" xmlns="http://www.w3.org/2000/svg" version="1.1" xmlns:xlink="http://www.w3.org/1999/xlink" xmlns:svgjs="http://svgjs.com/svgjs" width="66" height="52" viewBox="0 0 66 52"><title>Graduation_Cap</title><desc>Created with Avocode.</desc><defs id="SvgjsDefs1015"></defs><path id="SvgjsPath1016" d="M1594.97 1558.25L1565.64 1543.39C1565.14 1543.14 1564.5900000000001 1543 1564 1543C1563.41 1543 1562.86 1543.14 1562.36 1543.39L1533.03 1558.25C1531.83 1558.86 1531 1560.12 1531 1561.57C1531 1563.02 1531.83 1564.29 1533.03 1564.8999999999999L1534.67 1565.7299999999998L1534.67 1578.7999999999997C1533.5700000000002 1579.4399999999998 1532.8300000000002 1580.6299999999997 1532.8300000000002 1581.9999999999998C1532.8300000000002 1584.0499999999997 1534.4800000000002 1585.7099999999998 1536.5000000000002 1585.7099999999998C1538.5300000000002 1585.7099999999998 1540.1700000000003 1584.0499999999997 1540.1700000000003 1581.9999999999998C1540.1700000000003 1580.6299999999999 1539.4300000000003 1579.4399999999998 1538.3300000000004 1578.7999999999997L1538.3300000000004 1567.5799999999997L1543.8300000000004 1570.3699999999997L1543.8300000000004 1581.9999999999998C1543.8300000000004 1589.1799999999998 1552.8600000000004 1594.9999999999998 1564.0000000000005 1594.9999999999998C1575.1400000000006 1594.9999999999998 1584.1700000000005 1589.1799999999998 1584.1700000000005 1581.9999999999998L1584.1700000000005 1570.3699999999997L1594.9700000000005 1564.8999999999996C1596.1700000000005 1564.2899999999997 1597.0000000000005 1563.0199999999995 1597.0000000000005 1561.5699999999997C1597.0000000000005 1560.1199999999997 1596.1700000000005 1558.8599999999997 1594.9700000000005 1558.2499999999998ZM1578.67 1582C1578.67 1585.43 1572.26 1589.43 1564 1589.43C1555.74 1589.43 1549.33 1585.43 1549.33 1582L1549.33 1573.15L1562.36 1579.75C1562.86 1580 1563.4099999999999 1580.14 1564 1580.14C1564.59 1580.14 1565.14 1580 1565.64 1579.75L1578.67 1573.15ZM1564 1574.35L1538.76 1561.57L1564 1548.79L1589.24 1561.57Z " fill="#87949e" fill-opacity="1" transform="matrix(1,0,0,1,-1531,-1543)"></path></svg>