<svg id="SvgjsSvg1000" xmlns="http://www.w3.org/2000/svg" version="1.1" xmlns:xlink="http://www.w3.org/1999/xlink" xmlns:svgjs="http://svgjs.com/svgjs" width="54" height="53" viewBox="0 0 54 53"><title>Rocket</title><desc>Created with Avocode.</desc><defs id="SvgjsDefs1001"></defs><path id="SvgjsPath1007" d="M458.879 1570.32C456.386 1574.1499999999999 452.896 1577.33 448.995 1579.8999999999999C448.618 1586.11 445.472 1591.8899999999999 440.355 1595.54C439.927 1595.84 439.42 1596 438.91 1596C438.589 1596 438.266 1595.94 437.96000000000004 1595.81C437.16800000000006 1595.48 436.59900000000005 1594.77 436.45700000000005 1593.9299999999998C436.07900000000006 1591.6899999999998 435.0760000000001 1589.2199999999998 433.59800000000007 1586.7099999999998C431.9410000000001 1587.1599999999999 430.3330000000001 1587.5299999999997 428.8280000000001 1587.7899999999997C428.6860000000001 1587.8199999999997 428.54300000000006 1587.8299999999997 428.4020000000001 1587.8299999999997C427.7470000000001 1587.8299999999997 427.1130000000001 1587.5699999999997 426.6430000000001 1587.0999999999997L419.8930000000001 1580.3499999999997C419.3200000000001 1579.7799999999997 419.06200000000007 1578.9599999999996 419.2000000000001 1578.1699999999996C419.4620000000001 1576.6599999999996 419.8290000000001 1575.0599999999997 420.2810000000001 1573.3999999999996C417.7810000000001 1571.9199999999996 415.30400000000014 1570.9199999999996 413.0680000000001 1570.5399999999997C412.22300000000007 1570.3999999999996 411.5110000000001 1569.8299999999997 411.1830000000001 1569.0399999999997C410.8560000000001 1568.2499999999998 410.9590000000001 1567.3399999999997 411.4570000000001 1566.6399999999996C415.1070000000001 1561.5299999999997 420.8880000000001 1558.3799999999997 427.0960000000001 1557.9999999999995C429.6630000000001 1554.0999999999995 432.8420000000001 1550.6099999999994 436.6710000000001 1548.1199999999994C443.9340000000001 1543.3899999999994 452.5650000000001 1542.9999999999995 461.5120000000001 1542.9999999999995C462.88600000000014 1542.9999999999995 464.0000000000001 1544.1099999999994 464.0000000000001 1545.4799999999996C464.0000000000001 1554.0699999999995 463.60500000000013 1563.0699999999995 458.87900000000013 1570.3199999999995ZM439.386 1552.29C431.466 1557.44 426.218 1568.56 424.341 1577.76L429.232 1582.65C438.43100000000004 1580.7800000000002 449.552 1575.5300000000002 454.71000000000004 1567.6100000000001C458.285 1562.1200000000001 458.91700000000003 1555.2400000000002 459.01000000000005 1547.9900000000002C451.75300000000004 1548.0800000000002 444.87800000000004 1548.7100000000003 439.386 1552.2900000000002ZM446.582 1564.56C444.292 1564.56 442.435 1562.7 442.435 1560.4099999999999C442.435 1558.12 444.29200000000003 1556.2699999999998 446.582 1556.2699999999998C448.873 1556.2699999999998 450.729 1558.1199999999997 450.729 1560.4099999999999C450.729 1562.6999999999998 448.873 1564.56 446.582 1564.56ZM439.89 1590.54C442.142 1588.35 443.71299999999997 1585.56 444.442 1582.53C442.20300000000003 1583.68 439.913 1584.6399999999999 437.656 1585.44C438.605 1587.16 439.366 1588.8700000000001 439.89 1590.54ZM416.455 1567.11C418.123 1567.6299999999999 419.83599999999996 1568.3899999999999 421.553 1569.34C422.352 1567.08 423.318 1564.8 424.464 1562.56C421.434 1563.28 418.648 1564.85 416.455 1567.11ZM412.612 1593.35C412.589 1593.4299999999998 412.577 1593.51 412.577 1593.59C412.577 1594.05 412.947 1594.4199999999998 413.406 1594.4199999999998C413.49 1594.4199999999998 413.571 1594.4099999999999 413.647 1594.3799999999999L419.58799999999997 1592.58C421.28999999999996 1592.07 422.52899999999994 1590.49 422.52899999999994 1588.61C422.52899999999994 1586.32 420.67299999999994 1584.4699999999998 418.38199999999995 1584.4699999999998C416.51099999999997 1584.4699999999998 414.92999999999995 1585.7099999999998 414.41299999999995 1587.4099999999999Z " fill="#87949e" fill-opacity="1" transform="matrix(1,0,0,1,-410,-1543)"></path></svg>