<?xml version="1.0" encoding="iso-8859-1"?>
<!-- Generator: Adobe Illustrator 16.0.0, SVG Export Plug-In . SVG Version: 6.00 Build 0)  -->
<!DOCTYPE svg PUBLIC "-//W3C//DTD SVG 1.1//EN" "http://www.w3.org/Graphics/SVG/1.1/DTD/svg11.dtd">
<svg version="1.1" id="Capa_1" xmlns="http://www.w3.org/2000/svg" xmlns:xlink="http://www.w3.org/1999/xlink" x="0px" y="0px"
	 width="699.734px" height="699.734px" viewBox="0 0 699.734 699.734" style="enable-background:new 0 0 699.734 699.734;"
	 xml:space="preserve">
<g>
	<g id="Atom">
		<g>
			<path d="M349.867,306.109c-24.13,0-43.736,19.584-43.736,43.736c0,24.13,19.584,43.736,43.736,43.736
				s43.736-19.606,43.736-43.736C393.604,325.693,374.02,306.109,349.867,306.109z M590.667,349.846
				c59.692-66.249,79.691-127.843,54.621-171.623c-17.311-30.185-51.276-45.944-98.707-46.949
				c-21.529-0.437-45.855,2.12-72.631,7.759C446.257,50.293,401.931,0,349.867,0s-96.39,50.293-124.105,139.055
				c-84.849-17.704-146.508-4.065-171.338,39.19c-25.048,43.802-5.027,105.352,54.643,171.622
				C49.375,416.116,29.376,477.71,54.446,521.489c17.945,31.3,53.66,46.949,103.734,46.949c20.24,0,42.927-2.47,67.626-7.693
				c27.693,88.74,72.019,138.989,124.061,138.989c52.063,0,96.39-50.271,124.083-139.033c24.043,5.027,46.359,7.672,66.358,7.672
				c50.556,0,87.188-15.89,105.002-46.861C670.358,477.666,650.337,416.095,590.667,349.846z M349.867,65.593
				c15.344,0,47.714,32.72,69.178,120.542c2.645,10.841,4.634,22.425,6.732,33.878c-0.307-0.175-0.612-0.394-0.918-0.568
				c-19.562-11.388-40.043-22.185-60.895-32.108c-25.529-12.153-50.621-22.36-75.035-30.731
				C309.759,90.904,336.381,65.593,349.867,65.593z M111.384,488.879c-7.278-12.721,4.197-55.299,66.031-115.537
				c6.142-5.988,12.721-11.978,19.497-17.944c0.131,20.502,0.896,40.96,2.426,60.784c2.186,28.087,6.251,54.796,11.213,80.74
				C149.503,509.381,117.526,499.61,111.384,488.879z M213.063,259.27c-20.546,14.579-39.562,29.595-57.003,44.785
				c-43.059-48.348-51.037-82.139-44.72-93.199c7.104-12.393,48.217-23.584,128.607-0.962c10.775,3.039,21.879,6.71,33.113,10.688
				C252.975,232.341,232.844,245.303,213.063,259.27z M349.867,634.098c-15.344,0-47.714-32.72-69.178-120.542
				c-2.645-10.863-4.634-22.426-6.732-33.9c0.306,0.175,0.612,0.371,0.918,0.546c19.562,11.432,40.042,22.229,60.894,32.13
				c25.529,12.153,50.621,22.36,75.035,30.731C389.975,608.809,363.354,634.098,349.867,634.098z M391.854,423.548
				c-13.529,7.891-27.692,15.344-41.987,22.491c-14.294-7.147-28.436-14.601-41.987-22.513
				c-14.579-8.481-29.201-17.901-43.736-27.715c-0.875-15.169-1.749-30.426-1.749-45.966c0-15.541,0.874-30.753,1.749-45.944
				c14.535-9.836,29.157-19.256,43.736-27.759c13.529-7.869,27.693-15.322,41.987-22.491c14.295,7.169,28.458,14.622,41.987,22.491
				c14.579,8.502,29.201,17.923,43.736,27.759c0.874,15.19,1.749,30.425,1.749,45.965c0,15.541-0.875,30.753-1.749,45.966
				C421.056,405.625,406.434,415.067,391.854,423.548z M588.395,488.879c-7.126,12.306-48.261,23.54-128.607,0.939
				c-10.776-3.038-21.857-6.71-33.092-10.688c20.043-11.737,40.217-24.699,59.954-38.666c20.546-14.601,39.562-29.594,57.025-44.807
				C586.711,444.006,594.711,477.797,588.395,488.879z M522.32,326.371c-6.143,5.989-12.721,11.978-19.497,17.944
				c-0.131-20.523-0.896-40.96-2.426-60.785c-2.186-28.086-6.251-54.817-11.213-80.762c61.025-12.458,92.98-2.667,99.166,8.065
				C595.629,223.555,584.154,266.154,522.32,326.371z"/>
		</g>
	</g>
</g>
<g>
</g>
<g>
</g>
<g>
</g>
<g>
</g>
<g>
</g>
<g>
</g>
<g>
</g>
<g>
</g>
<g>
</g>
<g>
</g>
<g>
</g>
<g>
</g>
<g>
</g>
<g>
</g>
<g>
</g>
</svg>
