<?xml version="1.0" encoding="iso-8859-1"?>
<!-- Generator: Adobe Illustrator 18.1.1, SVG Export Plug-In . SVG Version: 6.00 Build 0)  -->
<svg version="1.1" id="Capa_1" xmlns="http://www.w3.org/2000/svg" xmlns:xlink="http://www.w3.org/1999/xlink" x="0px" y="0px"
	 viewBox="0 0 72 72" style="enable-background:new 0 0 72 72;" xml:space="preserve">
<g id="_x37_7_Essential_Icons_27_">
	<path id="Layers" d="M70,0H22c-1.1,0-2,0.9-2,2v18H2c-1.1,0-2,0.9-2,2v48c0,1.1,0.9,2,2,2h48c1.1,0,2-0.9,2-2V52h18
		c1.1,0,2-0.9,2-2V2C72,0.9,71.1,0,70,0z M48,68H4V24h16v26c0,1.1,0.9,2,2,2h26V68z M68,48H24V4h44V48z"/>
</g>
<g>
</g>
<g>
</g>
<g>
</g>
<g>
</g>
<g>
</g>
<g>
</g>
<g>
</g>
<g>
</g>
<g>
</g>
<g>
</g>
<g>
</g>
<g>
</g>
<g>
</g>
<g>
</g>
<g>
</g>
</svg>
